{
  "accessors": [
    {
      "bufferView": 2,
      "componentType": 5126,
      "count": 559,
      "max": [
        1.9700230360031128,
        0.49950501322746277,
        0.27420198917388916
      ],
      "min": [
        -0.05506100133061409,
        -0.14334699511528015,
        -0.5658439993858337
      ],
      "type": "VEC3"
    },
    {
      "bufferView": 2,
      "byteOffset": 6708,
      "componentType": 5126,
      "count": 559,
      "max": [
        0.8818082213401794,
        0.9981092810630798,
        0.9994314908981323
      ],
      "min": [
        -0.9879292249679565,
        -0.9989768862724304,
        -0.9943825006484985
      ],
      "type": "VEC3"
    },
    {
      "bufferView": 1,
      "componentType": 5126,
      "count": 559,
      "max": [
        1.0,
        1.0
      ],
      "min": [
        0.0,
        0.0
      ],
      "type": "VEC2"
    },
    {
      "bufferView": 0,
      "componentType": 5125,
      "count": 2880,
      "type": "SCALAR"
    },
    {
      "bufferView": 2,
      "byteOffset": 13416,
      "componentType": 5126,
      "count": 559,
      "max": [
        0.05506100133061409,
        0.49950501322746277,
        0.27420198917388916
      ],
      "min": [
        -1.9700230360031128,
        -0.14334699511528015,
        -0.5658439993858337
      ],
      "type": "VEC3"
    },
    {
      "bufferView": 2,
      "byteOffset": 20124,
      "componentType": 5126,
      "count": 559,
      "max": [
        0.9879292249679565,
        0.9981092810630798,
        0.9994314908981323
      ],
      "min": [
        -0.8818082213401794,
        -0.9989768862724304,
        -0.9943825006484985
      ],
      "type": "VEC3"
    },
    {
      "bufferView": 1,
      "byteOffset": 4472,
      "componentType": 5126,
      "count": 559,
      "max": [
        1.0,
        1.0
      ],
      "min": [
        0.0,
        0.0
      ],
      "type": "VEC2"
    },
    {
      "bufferView": 0,
      "byteOffset": 11520,
      "componentType": 5125,
      "count": 2880,
      "type": "SCALAR"
    }
  ],
  "asset": {
    "extras": {
      "author": "vajidkm (https://sketchfab.com/vajidkm)",
      "license": "CC-BY-4.0 (http://creativecommons.org/licenses/by/4.0/)",
      "source": "https://sketchfab.com/3d-models/mostache-61f34dcad95b450d9cc95456f3b93072",
      "title": "MOSTACHE"
    },
    "generator": "Sketchfab-12.67.0",
    "version": "2.0"
  },
  "bufferViews": [
    {
      "buffer": 0,
      "byteLength": 23040,
      "name": "floatBufferViews",
      "target": 34963
    },
    {
      "buffer": 0,
      "byteLength": 8944,
      "byteOffset": 23040,
      "byteStride": 8,
      "name": "floatBufferViews",
      "target": 34962
    },
    {
      "buffer": 0,
      "byteLength": 26832,
      "byteOffset": 31984,
      "byteStride": 12,
      "name": "floatBufferViews",
      "target": 34962
    }
  ],
  "buffers": [
    {
      "byteLength": 58816,
      "uri": "scene.bin"
    }
  ],
  "materials": [
    {
      "doubleSided": true,
      "name": "Material.001",
      "pbrMetallicRoughness": {
        "baseColorFactor": [
          0.026030741355513805,
          0.026030741355513805,
          0.026030741355513805,
          1.0
        ],
        "metallicFactor": 0.0,
        "roughnessFactor": 0.8462856222145206
      }
    },
    {
      "doubleSided": true,
      "name": "None",
      "pbrMetallicRoughness": {
        "baseColorFactor": [
          0.0321109145188455,
          0.0321109145188455,
          0.0321109145188455,
          1.0
        ],
        "metallicFactor": 0.0,
        "roughnessFactor": 0.6
      }
    }
  ],
  "meshes": [
    {
      "name": "Object_0",
      "primitives": [
        {
          "attributes": {
            "NORMAL": 1,
            "POSITION": 0,
            "TEXCOORD_0": 2
          },
          "indices": 3,
          "material": 0,
          "mode": 4
        }
      ]
    },
    {
      "name": "Object_1",
      "primitives": [
        {
          "attributes": {
            "NORMAL": 5,
            "POSITION": 4,
            "TEXCOORD_0": 6
          },
          "indices": 7,
          "material": 1,
          "mode": 4
        }
      ]
    }
  ],
  "nodes": [
    {
      "children": [
        1
      ],
      "matrix": [
        1.0,
        0.0,
        0.0,
        0.0,
        0.0,
        2.220446049250313e-16,
        -1.0,
        0.0,
        0.0,
        1.0,
        2.220446049250313e-16,
        0.0,
        0.0,
        0.0,
        0.0,
        1.0
      ],
      "name": "Sketchfab_model"
    },
    {
      "children": [
        2,
        3
      ],
      "name": "651c7d1db1014fb8849b144734cf161e.obj.cleaner.materialmerger.gles"
    },
    {
      "mesh": 0,
      "name": "Object_2"
    },
    {
      "mesh": 1,
      "name": "Object_3"
    }
  ],
  "scene": 0,
  "scenes": [
    {
      "name": "Sketchfab_Scene",
      "nodes": [
        0
      ]
    }
  ]
}
